<?xml version="1.0" encoding="UTF-8"?>
<svg xmlns="http://www.w3.org/2000/svg" xmlns:xlink="http://www.w3.org/1999/xlink" width="48pt" height="48pt" viewBox="0 0 48 48" version="1.1">
<g id="surface1">
<rect x="0" y="0" width="48" height="48" style="fill:rgb(90.588235%,29.803922%,23.529412%);fill-opacity:1;stroke:none;"/>
<path style=" stroke:none;fill-rule:nonzero;fill:rgb(99.607843%,99.215686%,93.72549%);fill-opacity:1;" d="M 38.398438 36.960938 L 9.601562 36.960938 C 8.011719 36.960938 6.71875 35.671875 6.71875 34.078125 L 6.71875 13.921875 C 6.71875 12.328125 8.011719 11.039062 9.601562 11.039062 L 38.398438 11.039062 C 39.988281 11.039062 41.28125 12.328125 41.28125 13.921875 L 41.28125 34.078125 C 41.28125 35.671875 39.988281 36.960938 38.398438 36.960938 Z M 38.398438 36.960938 "/>
<path style=" stroke:none;fill-rule:nonzero;fill:rgb(0%,0%,0%);fill-opacity:1;" d="M 11.039062 36.960938 L 9.601562 36.960938 C 8.011719 36.960938 6.71875 35.671875 6.71875 34.078125 L 6.71875 13.921875 L 11.039062 13.921875 Z M 11.039062 36.960938 "/>
<path style=" stroke:none;fill-rule:nonzero;fill:rgb(0%,0%,0%);fill-opacity:1;" d="M 36.960938 36.960938 L 38.398438 36.960938 C 39.988281 36.960938 41.28125 35.671875 41.28125 34.078125 L 41.28125 13.921875 L 36.960938 13.921875 Z M 36.960938 36.960938 "/>
<path style=" stroke:none;fill-rule:nonzero;fill:rgb(0%,0%,0%);fill-opacity:1;" d="M 39.402344 11.519531 L 24 22.800781 L 8.597656 11.519531 C 7.691406 11.519531 6.960938 12.253906 6.960938 13.15625 L 6.960938 13.902344 C 6.960938 14.667969 7.324219 15.386719 7.941406 15.839844 L 24 27.601562 L 40.058594 15.839844 C 40.675781 15.386719 41.039062 14.667969 41.039062 13.902344 L 41.039062 13.15625 C 41.039062 12.253906 40.308594 11.519531 39.402344 11.519531 Z M 39.402344 11.519531 "/>
<path style=" stroke:none;fill-rule:nonzero;fill:rgb(12.156863%,12.941176%,16.862745%);fill-opacity:1;" d="M 38.398438 37.441406 L 9.601562 37.441406 C 7.746094 37.441406 6.238281 35.933594 6.238281 34.078125 L 6.238281 13.921875 C 6.238281 12.066406 7.746094 10.558594 9.601562 10.558594 L 38.398438 10.558594 C 40.253906 10.558594 41.761719 12.066406 41.761719 13.921875 L 41.761719 34.078125 C 41.761719 35.933594 40.253906 37.441406 38.398438 37.441406 Z M 9.601562 11.519531 C 8.277344 11.519531 7.199219 12.597656 7.199219 13.921875 L 7.199219 34.078125 C 7.199219 35.402344 8.277344 36.480469 9.601562 36.480469 L 38.398438 36.480469 C 39.722656 36.480469 40.800781 35.402344 40.800781 34.078125 L 40.800781 13.921875 C 40.800781 12.597656 39.722656 11.519531 38.398438 11.519531 Z M 9.601562 11.519531 "/>
<path style=" stroke:none;fill-rule:nonzero;fill:rgb(12.156863%,12.941176%,16.862745%);fill-opacity:1;" d="M 24 27.839844 C 23.949219 27.839844 23.902344 27.824219 23.859375 27.792969 L 7.800781 16.03125 C 7.125 15.539062 6.71875 14.742188 6.71875 13.902344 L 7.199219 13.902344 C 7.199219 14.589844 7.53125 15.238281 8.082031 15.644531 L 24 27.300781 L 39.914062 15.644531 C 40.46875 15.238281 40.800781 14.589844 40.800781 13.902344 L 41.28125 13.902344 C 41.28125 14.742188 40.875 15.539062 40.199219 16.03125 L 24.140625 27.792969 C 24.097656 27.824219 24.050781 27.839844 24 27.839844 Z M 24 27.839844 "/>
<path style=" stroke:none;fill-rule:nonzero;fill:rgb(12.156863%,12.941176%,16.862745%);fill-opacity:1;" d="M 10.800781 35.519531 C 10.667969 35.519531 10.558594 35.414062 10.558594 35.28125 L 10.558594 19.441406 C 10.558594 19.308594 10.667969 19.199219 10.800781 19.199219 C 10.933594 19.199219 11.039062 19.308594 11.039062 19.441406 L 11.039062 35.28125 C 11.039062 35.414062 10.933594 35.519531 10.800781 35.519531 Z M 10.800781 35.519531 "/>
<path style=" stroke:none;fill-rule:nonzero;fill:rgb(12.156863%,12.941176%,16.862745%);fill-opacity:1;" d="M 37.199219 29.761719 C 37.066406 29.761719 36.960938 29.652344 36.960938 29.519531 L 36.960938 19.441406 C 36.960938 19.308594 37.066406 19.199219 37.199219 19.199219 C 37.332031 19.199219 37.441406 19.308594 37.441406 19.441406 L 37.441406 29.519531 C 37.441406 29.652344 37.332031 29.761719 37.199219 29.761719 Z M 37.199219 29.761719 "/>
<path style=" stroke:none;fill-rule:nonzero;fill:rgb(12.156863%,12.941176%,16.862745%);fill-opacity:1;" d="M 37.199219 33.601562 C 37.066406 33.601562 36.960938 33.492188 36.960938 33.359375 L 36.960938 30.960938 C 36.960938 30.828125 37.066406 30.71875 37.199219 30.71875 C 37.332031 30.71875 37.441406 30.828125 37.441406 30.960938 L 37.441406 33.359375 C 37.441406 33.492188 37.332031 33.601562 37.199219 33.601562 Z M 37.199219 33.601562 "/>
<path style=" stroke:none;fill-rule:nonzero;fill:rgb(12.156863%,12.941176%,16.862745%);fill-opacity:1;" d="M 37.199219 35.519531 C 37.066406 35.519531 36.960938 35.414062 36.960938 35.28125 L 36.960938 34.800781 C 36.960938 34.667969 37.066406 34.558594 37.199219 34.558594 C 37.332031 34.558594 37.441406 34.667969 37.441406 34.800781 L 37.441406 35.28125 C 37.441406 35.414062 37.332031 35.519531 37.199219 35.519531 Z M 37.199219 35.519531 "/>
<path style=" stroke:none;fill-rule:nonzero;fill:rgb(12.156863%,12.941176%,16.862745%);fill-opacity:1;" d="M 35.761719 14.425781 C 35.6875 14.425781 35.613281 14.390625 35.566406 14.328125 C 35.488281 14.222656 35.511719 14.070312 35.617188 13.992188 L 36.578125 13.289062 C 36.683594 13.210938 36.835938 13.234375 36.914062 13.34375 C 36.992188 13.449219 36.96875 13.597656 36.863281 13.679688 L 35.902344 14.382812 C 35.859375 14.410156 35.808594 14.425781 35.761719 14.425781 Z M 35.761719 14.425781 "/>
<path style=" stroke:none;fill-rule:nonzero;fill:rgb(12.156863%,12.941176%,16.862745%);fill-opacity:1;" d="M 32.878906 16.535156 C 32.808594 16.535156 32.734375 16.5 32.6875 16.4375 C 32.609375 16.332031 32.628906 16.179688 32.738281 16.101562 L 34.65625 14.695312 C 34.765625 14.617188 34.914062 14.640625 34.992188 14.75 C 35.070312 14.855469 35.050781 15.003906 34.941406 15.085938 L 33.023438 16.492188 C 32.980469 16.519531 32.929688 16.535156 32.878906 16.535156 Z M 32.878906 16.535156 "/>
<path style=" stroke:none;fill-rule:nonzero;fill:rgb(12.156863%,12.941176%,16.862745%);fill-opacity:1;" d="M 24 23.039062 C 23.949219 23.039062 23.902344 23.023438 23.859375 22.992188 L 8.292969 11.59375 C 8.1875 11.515625 8.160156 11.363281 8.242188 11.257812 C 8.320312 11.152344 8.46875 11.128906 8.578125 11.207031 L 24 22.5 L 31.722656 16.847656 C 31.828125 16.769531 31.980469 16.789062 32.058594 16.898438 C 32.136719 17.003906 32.113281 17.15625 32.007812 17.234375 L 24.140625 22.992188 C 24.097656 23.023438 24.050781 23.039062 24 23.039062 Z M 24 23.039062 "/>
</g>
</svg>
